<svg width="17" height="16" viewBox="0 0 17 16" fill="none" xmlns="http://www.w3.org/2000/svg">
<path d="M1.5829 0.527999L1.0869 1.04L1.7429 1.6C2.82023 2.496 4.0469 3.17867 5.4229 3.648C5.94557 3.82933 6.3989 3.94667 6.7829 4C7.1989 4.064 7.80157 4.10133 8.5909 4.112C9.14557 4.112 9.66823 4.10133 10.1589 4.08C10.6709 4.05867 11.0176 4.02667 11.1989 3.984C11.3376 3.952 11.4176 3.95733 11.4389 4C11.4602 4.04267 11.3989 4.15467 11.2549 4.336C11.1109 4.51733 10.8522 4.81067 10.4789 5.216C10.1162 5.58933 9.5829 6.13333 8.8789 6.848L6.2709 9.472L0.670898 15.072L1.1189 15.552L1.5989 16L7.1989 10.4L9.8229 7.792C10.5376 7.088 11.0816 6.55467 11.4549 6.192C11.8602 5.81867 12.1536 5.56 12.3349 5.416C12.5162 5.272 12.6282 5.21067 12.6709 5.232C12.7136 5.25333 12.7189 5.33333 12.6869 5.472C12.6442 5.65333 12.6122 6 12.5909 6.512C12.5696 7.00267 12.5589 7.52533 12.5589 8.08C12.5696 8.86933 12.6069 9.472 12.6709 9.888C12.7242 10.272 12.8416 10.7253 13.0229 11.248C13.4922 12.624 14.1749 13.8507 15.0709 14.928L15.6309 15.584L16.1429 15.088L16.6709 14.592L16.2709 14.16C16.0576 13.9573 15.7162 13.4773 15.2469 12.72C14.5642 11.5893 14.1376 10.3733 13.9669 9.072C13.7962 7.78133 13.8842 6.504 14.2309 5.24C14.5776 3.976 15.1669 2.816 15.9989 1.76L16.6549 0.927999L16.2229 0.463999L15.7749 0.0159992L15.3429 0.351999C14.8522 0.725333 14.3242 1.08533 13.7589 1.432C13.1936 1.77867 12.7242 2.02667 12.3509 2.176C11.7749 2.4 11.0416 2.57333 10.1509 2.696C9.26023 2.81867 8.5269 2.84267 7.9509 2.768C6.9589 2.65067 5.95357 2.37067 4.9349 1.928C3.91623 1.48533 3.10823 0.975999 2.5109 0.399999L2.0789 -7.59959e-07L1.5829 0.527999Z" fill="#404A3D"/>
</svg>
