<svg width="17" height="16" viewBox="0 0 17 16" fill="none" xmlns="http://www.w3.org/2000/svg">
<g clip-path="url(#clip0_1_74)">
<path d="M16.5642 14.96L11.9082 10.304C12.3668 9.74933 12.7188 9.13333 12.9642 8.456C13.2095 7.77867 13.3322 7.072 13.3322 6.336C13.3322 5.19467 13.0442 4.128 12.4682 3.136C11.9028 2.18667 11.1455 1.42933 10.1962 0.863999C9.20416 0.287999 8.13749 -7.59959e-07 6.99616 -7.59959e-07C5.85482 -7.59959e-07 4.78816 0.287999 3.79616 0.863999C2.84682 1.42933 2.08949 2.18667 1.52416 3.136C0.948156 4.128 0.660156 5.19467 0.660156 6.336C0.660156 7.47733 0.948156 8.544 1.52416 9.536C2.08949 10.4853 2.84682 11.2427 3.79616 11.808C4.78816 12.384 5.85482 12.672 6.99616 12.672C7.73216 12.672 8.44682 12.544 9.14016 12.288C9.81216 12.0427 10.4255 11.696 10.9802 11.248L15.6202 15.904C15.6842 15.968 15.7615 16 15.8522 16C15.9428 16 16.0202 15.968 16.0842 15.904L16.5642 15.424C16.6282 15.36 16.6602 15.2827 16.6602 15.192C16.6602 15.1013 16.6282 15.024 16.5642 14.96ZM6.99616 11.328C6.08949 11.328 5.24682 11.0987 4.46816 10.64C3.72149 10.2027 3.12416 9.60533 2.67616 8.848C2.21749 8.08 1.98816 7.24267 1.98816 6.336C1.98816 5.42933 2.21749 4.58667 2.67616 3.808C3.12416 3.06133 3.72149 2.464 4.46816 2.016C5.24682 1.55733 6.08949 1.328 6.99616 1.328C7.90282 1.328 8.74016 1.55733 9.50816 2.016C10.2655 2.45333 10.8628 3.05067 11.3002 3.808C11.7588 4.58667 11.9882 5.42933 11.9882 6.336C11.9882 7.24267 11.7588 8.08533 11.3002 8.864C10.8628 9.61067 10.2655 10.208 9.50816 10.656C8.74016 11.104 7.90282 11.328 6.99616 11.328Z" fill="#404A3D"/>
</g>
<defs>
<clipPath id="clip0_1_74">
<rect width="16" height="16" fill="white" transform="matrix(1 0 0 -1 0.660156 16)"/>
</clipPath>
</defs>
</svg>
